<svg xmlns="http://www.w3.org/2000/svg" viewBox="0 0 900 520" role="img" aria-label="Pine X Websites logo"><defs><linearGradient id="g" x1="0" y1="0" x2="1" y2="1"><stop stop-color="#0b4b35"/><stop offset=".55" stop-color="#0f6f4a"/><stop offset="1" stop-color="#70f5d9"/></linearGradient></defs><rect width="900" height="520" rx="42" fill="transparent"/><g transform="translate(330 35)"><path d="M120 0 160 72h-24l48 68h-40l-24 48-24-48H56l48-68H80L120 0Z" fill="url(#g)"/><path d="M0 52h56l64 84 64-84h56l-84 110 88 118h-58l-66-88-66 88H-4l88-118L0 52Z" fill="#111a24"/><path d="M120 34 144 78h-18l46 64h-38l-14 34-14-34H68l46-64H96l24-44Z" fill="#0e583d"/><path d="M120 158 140 190l-20 34-20-34 20-32Z" fill="#70f5d9"/></g><text x="450" y="395" text-anchor="middle" font-family="Inter,Arial,sans-serif" font-size="72" font-weight="900" fill="#f4fbff">Pine <tspan fill="#70f5d9">X</tspan> Websites</text><text x="450" y="450" text-anchor="middle" font-family="Inter,Arial,sans-serif" font-size="22" font-weight="700" letter-spacing="7" fill="#9fb6be">WEB DESIGN • DIGITAL SOLUTIONS • GROW</text></svg>