<svg xmlns="http://www.w3.org/2000/svg" viewBox="0 0 128 128" role="img" aria-label="Pine X Websites mark"><defs><linearGradient id="g" x1="0" y1="0" x2="1" y2="1"><stop stop-color="#0b4b35"/><stop offset=".55" stop-color="#0f6f4a"/><stop offset="1" stop-color="#70f5d9"/></linearGradient></defs><rect width="128" height="128" rx="32" fill="#061015"/><path d="M64 14 86 50H73l24 34H78l-14 28-14-28H31l24-34H42L64 14Z" fill="url(#g)"/><path d="M22 36h28l14 20 14-20h28L80 72l28 40H79L64 90l-15 22H20l28-40L22 36Z" fill="#111a24" opacity=".95"/><path d="M64 20 80 50H68l25 34H73l-9 20-9-20H35l25-34H48L64 20Z" fill="#0e583d"/><path d="M64 76 76 94l-12 20-12-20 12-18Z" fill="#70f5d9"/></svg>