<svg xmlns="http://www.w3.org/2000/svg" viewBox="0 0 3840 2160" width="3840" height="2160" role="img" aria-label="Premium ecommerce website visual for Pine X Websites"><defs><linearGradient id="bg" x1="0" y1="0" x2="1" y2="1"><stop stop-color="#03080b"/><stop offset=".6" stop-color="#08191d"/><stop offset="1" stop-color="#0a2a26"/></linearGradient><linearGradient id="teal" x1="0" y1="0" x2="1" y2="1"><stop stop-color="#70f5d9"/><stop offset="1" stop-color="#1bd38c"/></linearGradient></defs><rect width="3840" height="2160" fill="url(#bg)"/><circle cx="3050" cy="500" r="620" fill="#70f5d9" opacity=".12"/><circle cx="480" cy="1760" r="780" fill="#9e7cff" opacity=".075"/><path d="M0 1510C560 1270 870 1550 1330 1350C1780 1155 2180 1320 2660 1070C3160 820 3500 920 3840 740V2160H0Z" fill="#063d3c" opacity=".55"/><path d="M0 1710C520 1480 910 1710 1410 1510C1960 1290 2330 1480 2810 1230C3300 980 3600 1100 3840 920" fill="none" stroke="#70f5d9" stroke-width="8" opacity=".62"/><path d="M0 1850C570 1630 880 1890 1390 1710C1960 1510 2390 1630 2820 1420C3250 1210 3600 1320 3840 1180" fill="none" stroke="#9e7cff" stroke-width="5" opacity=".5"/><g transform="translate(1950 520)"><rect width="1320" height="780" rx="54" fill="#08161d" stroke="#70f5d9" stroke-opacity=".45" stroke-width="4"/><g transform="translate(80 110)"><rect width="240" height="360" rx="26" fill="#0c2327" stroke="#70f5d9" stroke-opacity=".32"/><circle cx="120" cy="135" r="70" fill="#70f5d9" opacity=".28"/><path d="M70 245h100M70 290h140M70 330h80" stroke="#70f5d9" stroke-width="12" stroke-linecap="round" opacity=".55"/></g><g transform="translate(370 110)"><rect width="240" height="360" rx="26" fill="#0c2327" stroke="#70f5d9" stroke-opacity=".32"/><circle cx="120" cy="135" r="70" fill="#70f5d9" opacity=".22"/><path d="M70 245h100M70 290h140M70 330h80" stroke="#70f5d9" stroke-width="12" stroke-linecap="round" opacity=".55"/></g><g transform="translate(660 110)"><rect width="240" height="360" rx="26" fill="#0c2327" stroke="#70f5d9" stroke-opacity=".32"/><circle cx="120" cy="135" r="70" fill="#70f5d9" opacity=".25"/><path d="M70 245h100M70 290h140M70 330h80" stroke="#70f5d9" stroke-width="12" stroke-linecap="round" opacity=".55"/></g><g transform="translate(950 110)"><rect width="240" height="360" rx="26" fill="#0c2327" stroke="#70f5d9" stroke-opacity=".32"/><circle cx="120" cy="135" r="70" fill="#70f5d9" opacity=".2"/><path d="M70 245h100M70 290h140M70 330h80" stroke="#70f5d9" stroke-width="12" stroke-linecap="round" opacity=".55"/></g><rect x="80" y="560" width="1110" height="110" rx="28" fill="#0b2024"/><path d="M130 615h540" stroke="url(#teal)" stroke-width="18" stroke-linecap="round"/><path d="M740 615h360" stroke="#9e7cff" stroke-width="18" stroke-linecap="round" opacity=".55"/></g><g transform="translate(1220 900)"><rect width="520" height="330" rx="42" fill="#092126" stroke="#70f5d9" stroke-opacity=".55" stroke-width="4"/><path d="M110 92h80l28 170h210" fill="none" stroke="#70f5d9" stroke-width="18" stroke-linecap="round" stroke-linejoin="round"/><circle cx="240" cy="286" r="18" fill="#70f5d9"/><circle cx="370" cy="286" r="18" fill="#70f5d9"/></g><g transform="translate(3150 930)"><rect width="430" height="540" rx="48" fill="#092126" stroke="#70f5d9" stroke-opacity=".5"/><path d="M90 120h240M90 190h190M90 260h250M90 330h210" stroke="#70f5d9" stroke-width="14" stroke-linecap="round" opacity=".45"/><rect x="70" y="390" width="290" height="90" rx="30" fill="url(#teal)"/><path d="M160 435l40 40l82-92" fill="none" stroke="#061015" stroke-width="18" stroke-linecap="round" stroke-linejoin="round"/></g></svg>