<svg xmlns="http://www.w3.org/2000/svg" viewBox="0 0 3840 2160" width="3840" height="2160" role="img" aria-label="Pine X Websites premium hero visual"><defs><linearGradient id="g" x1="0" y1="0" x2="1" y2="1"><stop stop-color="#061015"/><stop offset="1" stop-color="#0b1e21"/></linearGradient></defs><rect width="3840" height="2160" fill="url(#g)"/><circle cx="3050" cy="600" r="560" fill="#70f5d9" opacity=".15"/><circle cx="450" cy="1700" r="720" fill="#9e7cff" opacity=".09"/><path d="M0 1680C520 1390 900 1670 1300 1470C1780 1230 2100 1340 2500 1170C3020 950 3440 1000 3840 760V2160H0Z" fill="#0b5548" opacity=".42"/><path d="M0 1770C610 1580 860 1800 1420 1580C1840 1415 2250 1540 2720 1280C3220 1005 3560 1100 3840 940" fill="none" stroke="#70f5d9" stroke-width="8" opacity=".65"/><path d="M0 1850C540 1650 900 1880 1370 1700C1910 1490 2300 1640 2810 1400C3310 1165 3560 1240 3840 1080" fill="none" stroke="#9e7cff" stroke-width="5" opacity=".5"/><rect x="2180" y="420" width="1190" height="760" rx="48" fill="#08161d" stroke="#70f5d9" stroke-opacity=".45" stroke-width="4"/><rect x="2260" y="500" width="1030" height="520" rx="28" fill="#071116"/><path d="M2760 610l135 240h-76l192 210h-132l-119 150l-119-150h-132l192-210h-76z" fill="#70f5d9" opacity=".72"/><rect x="1680" y="960" width="490" height="360" rx="34" fill="#0b2125" stroke="#70f5d9" stroke-opacity=".55"/><rect x="1750" y="1048" width="150" height="14" rx="7" fill="#70f5d9"/><rect x="1930" y="1048" width="170" height="14" rx="7" fill="#70f5d9" opacity=".75"/><rect x="1750" y="1110" width="310" height="10" rx="5" fill="#9e7cff"/><rect x="1750" y="1160" width="250" height="10" rx="5" fill="#70f5d9" opacity=".55"/><rect x="3450" y="760" width="310" height="260" rx="38" fill="#0b2125" stroke="#70f5d9" stroke-opacity=".5"/><path d="M3515 920l70-90l70 90l40-50l70 90h-250z" fill="#70f5d9" opacity=".72"/></svg>