<svg xmlns="http://www.w3.org/2000/svg" viewBox="0 0 3840 2160" width="3840" height="2160" role="img" aria-label="Premium lead generation visual for Pine X Websites"><defs><linearGradient id="bg" x1="0" y1="0" x2="1" y2="1"><stop stop-color="#03080b"/><stop offset=".6" stop-color="#07161c"/><stop offset="1" stop-color="#092c29"/></linearGradient><linearGradient id="teal" x1="0" y1="0" x2="1" y2="1"><stop stop-color="#70f5d9"/><stop offset="1" stop-color="#1bd38c"/></linearGradient><filter id="glow"><feGaussianBlur stdDeviation="18" result="b"/><feMerge><feMergeNode in="b"/><feMergeNode in="SourceGraphic"/></feMerge></filter></defs><rect width="3840" height="2160" fill="url(#bg)"/><circle cx="2720" cy="820" r="650" fill="#70f5d9" opacity=".13"/><circle cx="500" cy="1660" r="730" fill="#9e7cff" opacity=".075"/><path d="M0 1580C620 1320 970 1600 1460 1370C1890 1170 2250 1340 2750 1130C3200 940 3540 990 3840 820V2160H0Z" fill="#063d3c" opacity=".5"/><g opacity=".6" stroke-linecap="round" fill="none"><path d="M0 1760C640 1440 950 1740 1500 1510C1980 1310 2320 1500 2790 1260C3270 1015 3540 1120 3840 980" stroke="#70f5d9" stroke-width="8"/><path d="M0 1880C550 1630 920 1900 1420 1720C2010 1510 2400 1660 2890 1440C3260 1270 3560 1330 3840 1180" stroke="#9e7cff" stroke-width="5"/></g><g transform="translate(2180 350)" filter="url(#glow)"><path d="M410 0l180 310h-100l260 360h-210l-130 300l-130-300H70l260-360H230z" fill="url(#teal)" opacity=".82"/><path d="M410 420l115 200l-115 230l-115-230z" fill="#061015" opacity=".65"/></g><g transform="translate(2620 500)"><rect width="900" height="580" rx="50" fill="#092126" stroke="#70f5d9" stroke-opacity=".42" stroke-width="4"/><path d="M90 430C180 310 250 360 320 270C410 155 500 240 570 150C670 20 760 100 820 60" fill="none" stroke="#70f5d9" stroke-width="18" stroke-linecap="round"/><circle cx="90" cy="430" r="18" fill="#70f5d9"/><circle cx="320" cy="270" r="18" fill="#70f5d9"/><circle cx="570" cy="150" r="18" fill="#70f5d9"/><circle cx="820" cy="60" r="24" fill="#70f5d9"/></g><g transform="translate(2500 1130)"><rect width="560" height="96" rx="30" fill="#092126" stroke="#70f5d9" stroke-opacity=".4"/><circle cx="62" cy="48" r="28" fill="url(#teal)"/><path d="M125 34h280M125 64h180" stroke="#70f5d9" stroke-width="12" stroke-linecap="round" opacity=".45"/><path d="M476 34l30 30l54-62" transform="translate(-36 22)" fill="none" stroke="#70f5d9" stroke-width="10" stroke-linecap="round"/></g><g transform="translate(2500 1260)"><rect width="560" height="96" rx="30" fill="#092126" stroke="#70f5d9" stroke-opacity=".4"/><rect x="38" y="28" width="48" height="40" rx="8" fill="url(#teal)"/><path d="M125 34h280M125 64h180" stroke="#70f5d9" stroke-width="12" stroke-linecap="round" opacity=".45"/><path d="M476 34l30 30l54-62" transform="translate(-36 22)" fill="none" stroke="#70f5d9" stroke-width="10" stroke-linecap="round"/></g><g transform="translate(2500 1390)"><rect width="560" height="96" rx="30" fill="#092126" stroke="#70f5d9" stroke-opacity=".4"/><rect x="38" y="28" width="54" height="38" rx="12" fill="url(#teal)"/><path d="M125 34h280M125 64h180" stroke="#70f5d9" stroke-width="12" stroke-linecap="round" opacity=".45"/><path d="M476 34l30 30l54-62" transform="translate(-36 22)" fill="none" stroke="#70f5d9" stroke-width="10" stroke-linecap="round"/></g><g transform="translate(560 1320)"><circle cx="0" cy="0" r="80" fill="#092126" stroke="#70f5d9" stroke-width="5"/><circle cx="340" cy="-120" r="90" fill="#092126" stroke="#70f5d9" stroke-width="5"/><circle cx="680" cy="40" r="80" fill="#092126" stroke="#70f5d9" stroke-width="5"/><circle cx="420" cy="250" r="90" fill="#092126" stroke="#70f5d9" stroke-width="5"/><path d="M78-28L258-92M430-64L610 12M614 70L492 196M348 214L74 34" stroke="#70f5d9" stroke-width="7" opacity=".5"/><path d="M-35 20h70M305-120h70M650 40h60M390 250h65" stroke="#70f5d9" stroke-width="16" stroke-linecap="round"/></g></svg>