<svg xmlns="http://www.w3.org/2000/svg" viewBox="0 0 3840 2160" width="3840" height="2160" role="img" aria-label="Premium website design visual for Pine X Websites"><defs><linearGradient id="bg" x1="0" y1="0" x2="1" y2="1"><stop stop-color="#03080b"/><stop offset=".55" stop-color="#07151a"/><stop offset="1" stop-color="#0b2c2a"/></linearGradient><linearGradient id="teal" x1="0" y1="0" x2="1" y2="1"><stop stop-color="#70f5d9"/><stop offset="1" stop-color="#1bd38c"/></linearGradient><filter id="glow"><feGaussianBlur stdDeviation="14" result="b"/><feMerge><feMergeNode in="b"/><feMergeNode in="SourceGraphic"/></feMerge></filter></defs><rect width="3840" height="2160" fill="url(#bg)"/><circle cx="3160" cy="520" r="620" fill="#70f5d9" opacity=".12"/><circle cx="500" cy="1720" r="760" fill="#9e7cff" opacity=".08"/><path d="M0 1580C520 1290 890 1520 1300 1350C1770 1150 2220 1280 2620 1050C3090 780 3480 900 3840 620V2160H0Z" fill="#063d3c" opacity=".55"/><g opacity=".6" stroke="#70f5d9" fill="none"><path d="M0 1720C620 1450 890 1690 1420 1480C1930 1270 2260 1440 2750 1180C3210 930 3560 1020 3840 840" stroke-width="8"/><path d="M0 1840C590 1640 860 1900 1390 1710C1960 1500 2360 1640 2810 1390C3300 1125 3600 1260 3840 1080" stroke-width="5" stroke="#9e7cff"/></g><g transform="translate(1990 430)"><rect width="1270" height="850" rx="52" fill="#08161d" stroke="#70f5d9" stroke-opacity=".45" stroke-width="4"/><rect x="70" y="70" width="1130" height="210" rx="28" fill="#0c2428"/><rect x="70" y="330" width="310" height="270" rx="28" fill="#0b2024" stroke="#70f5d9" stroke-opacity=".25"/><rect x="420" y="330" width="310" height="270" rx="28" fill="#0b2024" stroke="#70f5d9" stroke-opacity=".25"/><rect x="770" y="330" width="430" height="270" rx="28" fill="#0b2024" stroke="#70f5d9" stroke-opacity=".25"/><rect x="70" y="650" width="1130" height="120" rx="28" fill="#0b2024"/><path d="M150 190h860" stroke="url(#teal)" stroke-width="18" stroke-linecap="round"/><path d="M150 400h180M150 460h230M150 520h130M500 400h180M500 460h230M500 520h130M850 400h260M850 460h210M850 520h290" stroke="#70f5d9" stroke-width="14" stroke-linecap="round" opacity=".65"/></g><g transform="translate(1370 760)" filter="url(#glow)"><rect width="560" height="410" rx="42" fill="#092126" stroke="#70f5d9" stroke-opacity=".55" stroke-width="4"/><rect x="70" y="78" width="380" height="18" rx="9" fill="#70f5d9"/><rect x="70" y="140" width="280" height="14" rx="7" fill="#9e7cff"/><rect x="70" y="198" width="420" height="14" rx="7" fill="#70f5d9" opacity=".55"/><rect x="70" y="256" width="330" height="14" rx="7" fill="#70f5d9" opacity=".35"/></g><g transform="translate(780 1100)" opacity=".78"><rect width="460" height="300" rx="42" fill="#0a2226" stroke="#70f5d9" stroke-opacity=".35"/><path d="M90 210l90-120l82 100l55-70l74 90z" fill="url(#teal)" opacity=".75"/></g></svg>